<svg width="20" height="20" viewBox="0 0 20 20" fill="none" xmlns="http://www.w3.org/2000/svg">
<path d="M18.3334 6.80134L17.3897 12.7778C17.2182 13.9562 16.2745 14.7138 15.0736 14.7138H6.83828C5.72308 14.7138 4.69367 13.872 4.5221 12.7778L3.49269 5.79124L3.23533 3.85521C3.14955 3.35016 2.72063 3.01346 2.12014 3.01346H1.51965C1.17651 3.01346 0.833374 2.67676 0.833374 2.34006C0.833374 2.00336 1.17651 1.66666 1.51965 1.66666H2.12014C3.32112 1.66666 4.35053 2.50841 4.43632 3.68686L4.60788 5.03366H16.7893C17.2182 5.03366 17.6471 5.20201 17.9045 5.53871C18.2476 5.87541 18.3334 6.38046 18.3334 6.80134Z" fill="#D9D9D9"/>
<path d="M15.2451 18.3333C15.7189 18.3333 16.103 17.9565 16.103 17.4916C16.103 17.0267 15.7189 16.6498 15.2451 16.6498C14.7714 16.6498 14.3873 17.0267 14.3873 17.4916C14.3873 17.9565 14.7714 18.3333 15.2451 18.3333Z" fill="#D9D9D9"/>
<path d="M6.66671 18.3333C7.14048 18.3333 7.52455 17.9565 7.52455 17.4916C7.52455 17.0267 7.14048 16.6498 6.66671 16.6498C6.19293 16.6498 5.80886 17.0267 5.80886 17.4916C5.80886 17.9565 6.19293 18.3333 6.66671 18.3333Z" fill="#D9D9D9"/>
</svg>
