<svg width="26" height="22" viewBox="0 0 26 22" fill="none" xmlns="http://www.w3.org/2000/svg">
<path fill-rule="evenodd" clip-rule="evenodd" d="M12.3129 3.2436C7.60648 3.2436 3.79279 6.50244 3.79279 10.5207C3.79279 14.539 7.60648 17.7978 12.3129 17.7978C14.6609 17.7978 16.7856 16.9875 18.3274 15.675C19.8762 14.3566 20.833 12.5347 20.833 10.5207C20.833 6.50244 17.0193 3.2436 12.3129 3.2436ZM2.14374 10.5207C2.14374 5.72204 6.69753 1.83334 12.3129 1.83334C17.9283 1.83334 22.4821 5.72204 22.4821 10.5207C22.4821 12.6706 21.567 14.6389 20.0531 16.1554L23.3396 18.9627C23.6618 19.2379 23.6621 19.6843 23.3403 19.9599C23.0185 20.2354 22.4964 20.2356 22.1742 19.9604L18.8847 17.1505C17.1127 18.4335 14.818 19.2081 12.3129 19.2081C6.69753 19.2081 2.14374 15.3194 2.14374 10.5207Z" fill="#A5A5A5"/>
</svg>
