<svg width="27" height="24" viewBox="0 0 27 24" fill="none" xmlns="http://www.w3.org/2000/svg">
<path d="M13.3819 12.8915C9.28498 12.8915 5.18803 12.8915 1.09108 12.8908C0.961448 12.8908 0.827342 12.8945 0.702176 12.8669C0.25441 12.7686 -0.0480741 12.3372 0.00631347 11.8932C0.060701 11.4484 0.439924 11.1116 0.913021 11.1094C1.98364 11.1034 3.055 11.1064 4.12561 11.1064C11.3234 11.1064 18.5212 11.1072 25.719 11.1087C25.8575 11.1087 26.0013 11.1049 26.1347 11.1362C26.5743 11.2398 26.8641 11.6555 26.8179 12.0921C26.7702 12.5391 26.3947 12.8871 25.9246 12.8893C24.7139 12.8967 23.504 12.893 22.2933 12.893C19.3228 12.893 16.3524 12.893 13.3827 12.893C13.3819 12.893 13.3819 12.8923 13.3819 12.8915Z" fill="white"/>
<path d="M10.5553 24C9.20454 23.7974 7.81952 23.7214 6.51124 23.3652C3.76504 22.6165 2.19526 20.7241 1.74451 17.9272C1.57762 16.8924 1.47481 15.8471 1.3556 14.8055C1.28333 14.176 1.58358 13.7632 2.13193 13.6954C2.67655 13.6284 3.07589 13.9815 3.13624 14.5276C3.26587 15.7078 3.35602 16.8976 3.57879 18.0613C3.9811 20.1631 5.70214 21.6286 7.83666 21.8163C8.84618 21.905 9.85421 22.0175 10.8608 22.1337C11.5954 22.2186 11.9344 23.0344 11.4948 23.6312C11.3048 23.8897 11.0805 23.9635 10.5553 24Z" fill="white"/>
<path d="M25.4463 9.39807C25.4306 9.53515 25.4321 9.67745 25.3949 9.80858C25.3077 10.1185 25.0015 10.3778 24.7422 10.383C24.3004 10.3919 23.7998 10.0641 23.6977 9.64989C23.6247 9.3556 23.6224 9.04418 23.5822 8.74095C23.457 7.78432 23.3967 6.81354 23.1881 5.87554C22.7604 3.95559 21.5326 2.73746 19.6142 2.32247C18.4742 2.07587 17.2971 1.99987 16.1363 1.84714C16.0074 1.83 15.8756 1.82404 15.7504 1.79201C15.3309 1.68547 15.0583 1.28687 15.1112 0.870399C15.17 0.407732 15.5269 0.0538406 15.9732 0.0858771C17.5042 0.195397 19.0427 0.306407 20.5119 0.776524C22.8632 1.52975 24.3451 3.15766 24.9054 5.53953C25.2012 6.79864 25.3017 8.1032 25.4902 9.38689C25.4761 9.39136 25.4612 9.39434 25.4463 9.39807Z" fill="white"/>
<path d="M25.4225 14.8808C25.2988 16.1675 25.2086 17.5808 24.8167 18.9442C24.0777 21.5146 21.8962 23.2892 19.2372 23.5493C18.1554 23.6551 17.0781 23.8108 15.9993 23.9441C15.6171 23.9918 15.2013 23.623 15.1209 23.1648C15.0404 22.7059 15.3287 22.2551 15.7832 22.194C16.3263 22.1203 16.8777 22.1061 17.4208 22.0331C18.3223 21.9132 19.2566 21.8804 20.1133 21.6084C21.97 21.0199 23.0071 19.6639 23.279 17.7454C23.4235 16.7255 23.5308 15.7003 23.6336 14.6752C23.6932 14.0821 24.0799 13.6686 24.6007 13.6984C25.1043 13.7275 25.4515 14.1745 25.4225 14.8808Z" fill="white"/>
<path d="M1.32947 9.27513C1.52765 7.95493 1.62078 6.60791 1.94487 5.319C2.6005 2.71063 4.34909 1.11849 6.95895 0.532893C8.13387 0.269151 9.34753 0.177512 10.5448 0.0173291C10.7266 -0.00725703 10.9225 -0.0087471 11.0984 0.0329749C11.5119 0.130574 11.7547 0.509797 11.7153 0.940427C11.6735 1.39117 11.3681 1.69068 10.9285 1.73985C9.84745 1.86055 8.76417 1.97081 7.68685 2.1228C5.41077 2.44316 3.83353 4.02338 3.5236 6.28456C3.37533 7.36933 3.25687 8.45857 3.12947 9.54632C3.07806 9.98441 2.70182 10.3122 2.24214 10.3063C1.79586 10.3003 1.41515 9.94492 1.39056 9.50833C1.38609 9.43457 1.38982 9.36007 1.38982 9.28556C1.3697 9.28184 1.34958 9.27886 1.32947 9.27513Z" fill="white"/>
</svg>
